<?xml version="1.0" encoding="UTF-8"?>
<!DOCTYPE svg PUBLIC "-//W3C//DTD SVG 1.1//EN" "http://www.w3.org/Graphics/SVG/1.1/DTD/svg11.dtd">
<!-- Creator: CorelDRAW 2020 (64-Bit) -->
<svg xmlns="http://www.w3.org/2000/svg" xml:space="preserve" width="37.869mm" height="18.5317mm" version="1.1" style="shape-rendering:geometricPrecision; text-rendering:geometricPrecision; image-rendering:optimizeQuality; fill-rule:evenodd; clip-rule:evenodd"
viewBox="0 0 704.6 344.81"
 xmlns:xlink="http://www.w3.org/1999/xlink"
 xmlns:xodm="http://www.corel.com/coreldraw/odm/2003">
 <defs>
  <style type="text/css">
   <![CDATA[
    .fil1 {fill:red;fill-rule:nonzero}
    .fil0 {fill:white;fill-rule:nonzero}
   ]]>
  </style>
 </defs>
 <g id="Layer_x0020_1">
  <metadata id="CorelCorpID_0Corel-Layer"/>
  <path class="fil0" d="M95.58 10.93c4.02,0.17 7.34,0.83 9.96,1.97 2.62,1.13 4.63,2.53 6.03,4.2 1.4,1.66 2.27,3.41 2.62,5.24 0.35,1.84 0.35,3.54 0,5.11 -1.92,8.04 -3.98,16.39 -6.16,25.04 -2.19,8.65 -4.5,17.26 -6.95,25.83 1.22,0 2.4,0 3.54,0 1.13,0 2.32,0.09 3.54,0.26 8.74,-0.35 17,-1.84 24.78,-4.46 7.78,-2.62 14.38,-6.12 19.8,-10.49 5.42,-4.37 9.4,-9.61 11.93,-15.73 2.53,-6.12 2.93,-12.94 1.18,-20.45 -1.4,-5.77 -5.38,-10.66 -11.93,-14.68 -6.56,-4.02 -15.6,-6.03 -27.14,-6.03 -17.66,-0.17 -33.13,2.14 -46.42,6.95 -13.28,4.81 -24.08,10.58 -32.38,17.31 -8.3,6.73 -13.94,13.77 -16.91,21.11 -2.97,7.34 -2.89,13.46 0.26,18.36 -7.69,-0.7 -13.81,-2.27 -18.36,-4.72 -4.55,-2.45 -7.87,-5.25 -9.96,-8.39 -2.1,-3.15 -3.02,-6.47 -2.75,-9.97 0.26,-3.5 1.44,-6.56 3.54,-9.18 4.54,-5.77 11.06,-10.97 19.53,-15.6 8.48,-4.63 18.22,-8.57 29.24,-11.8 11.01,-3.23 22.9,-5.77 35.66,-7.6 12.76,-1.84 25.79,-2.84 39.07,-3.02 9.09,-0.17 17.92,0.44 26.48,1.84 8.57,1.4 16.17,3.58 22.81,6.56 6.64,2.97 11.89,6.86 15.73,11.67 3.85,4.81 5.68,10.62 5.51,17.44 -0.17,6.29 -2.19,12.02 -6.03,17.18 -3.85,5.16 -8.78,9.7 -14.81,13.64 -6.03,3.93 -12.67,7.17 -19.93,9.7 -7.26,2.53 -14.38,4.33 -21.37,5.38 8.57,2.62 15.65,6.16 21.24,10.62 5.59,4.46 8.3,9.92 8.13,16.39 -0.17,4.55 -1.79,8.65 -4.85,12.32 -3.06,3.67 -7.25,6.86 -12.59,9.57 -5.33,2.71 -11.63,4.9 -18.88,6.56 -7.26,1.66 -15.08,2.67 -23.47,3.02 -10.49,0.52 -21.07,0.13 -31.73,-1.18 -10.66,-1.31 -20.32,-3.5 -28.98,-6.56 -8.65,-3.06 -15.73,-6.77 -21.24,-11.15 -5.51,-4.37 -8.35,-9.26 -8.52,-14.68 0,-2.27 0.61,-4.24 1.83,-5.9 1.22,-1.66 2.84,-2.93 4.85,-3.8 2.01,-0.87 4.28,-1.44 6.82,-1.7 2.53,-0.26 5.03,-0.13 7.47,0.39 -0.7,4.9 0.22,9.61 2.75,14.16 2.54,4.55 6.34,8.52 11.41,11.93 5.07,3.41 11.28,6.03 18.62,7.87 7.34,1.83 15.38,2.49 24.13,1.97 7.87,-0.35 14.55,-1.4 20.06,-3.15 5.51,-1.75 9.96,-3.85 13.37,-6.29 3.41,-2.45 5.9,-5.03 7.47,-7.73 1.57,-2.71 2.36,-5.29 2.36,-7.74 0,-3.5 -1.09,-6.51 -3.28,-9.05 -2.19,-2.54 -5.03,-4.68 -8.52,-6.42 -3.5,-1.75 -7.47,-3.06 -11.93,-3.93 -4.46,-0.87 -9.05,-1.31 -13.77,-1.31l-11.54 41.69c-4.55,-0.52 -8.7,-1.35 -12.46,-2.49 -3.76,-1.14 -6.86,-2.67 -9.31,-4.59 -2.45,-1.92 -4.11,-4.24 -4.98,-6.95 -0.87,-2.71 -0.52,-6.07 1.05,-10.1 1.75,-4.9 3.98,-11.19 6.69,-18.88 2.71,-7.69 5.59,-15.87 8.65,-24.52 3.06,-8.65 6.25,-17.44 9.57,-26.35 3.32,-8.91 6.47,-17.13 9.44,-24.65z"/>
  <path id="1" class="fil0" d="M247.94 63.37c0.7,3.67 -0.52,6.82 -3.67,9.44 1.4,0.35 2.54,0.7 3.41,1.05 0.87,0.35 1.22,0.7 1.05,1.05 -1.4,6.47 -3.15,12.67 -5.24,18.62 -2.1,5.94 -3.85,11.98 -5.25,18.09 -1.22,4.9 -1.18,7.25 0.13,7.08 1.31,-0.17 3.45,-1.92 6.42,-5.24 2.97,-3.32 6.51,-7.65 10.62,-12.98 4.11,-5.33 8.35,-10.8 12.72,-16.39 0,0.17 0.26,0.57 0.79,1.18 0.52,0.61 0.96,1.44 1.31,2.49 0.35,1.05 0.39,2.27 0.13,3.67 -0.26,1.4 -1,2.89 -2.23,4.46 -3.5,4.2 -6.56,7.91 -9.18,11.15 -2.62,3.23 -5.16,6.16 -7.6,8.78 -2.45,2.62 -4.94,5.07 -7.47,7.34 -2.53,2.27 -5.46,4.55 -8.78,6.82 -1.75,1.4 -3.72,2.27 -5.9,2.62 -2.19,0.35 -4.28,0.31 -6.29,-0.13 -2.01,-0.44 -3.76,-1.18 -5.24,-2.23 -1.49,-1.05 -2.4,-2.27 -2.75,-3.67 -0.35,-1.22 -0.48,-2.53 -0.39,-3.93 0.09,-1.4 0.22,-2.88 0.39,-4.46 -3.85,3.67 -8.04,6.99 -12.59,9.96 -4.55,2.97 -8.83,4.46 -12.85,4.46 -3.85,0 -6.9,-0.79 -9.18,-2.36 -2.27,-1.57 -3.76,-3.59 -4.46,-6.03 -1.75,-5.94 -1.66,-12.94 0.26,-20.98 1.92,-8.04 5.29,-15.69 10.1,-22.94 4.81,-7.26 10.93,-13.37 18.36,-18.36 7.43,-4.98 15.78,-7.38 25.04,-7.21 4.37,0 8.35,0.7 11.93,2.1 3.58,1.4 5.73,3.58 6.42,6.56zm-29.63 12.59c4.55,-0.87 8.08,-2.27 10.62,-4.2 2.53,-1.92 4.15,-4.2 4.85,-6.82 0.17,-1.05 -0.31,-2.18 -1.44,-3.41 -1.14,-1.22 -3.1,-1.4 -5.9,-0.52 -3.85,1.05 -7.56,4.15 -11.15,9.31 -3.58,5.16 -6.73,10.84 -9.44,17.05 -2.71,6.21 -4.77,12.28 -6.16,18.22 -1.4,5.94 -1.84,10.31 -1.31,13.11 0.17,1.4 1,1.97 2.49,1.71 1.48,-0.26 3.15,-1.05 4.98,-2.36 1.83,-1.31 3.76,-2.88 5.77,-4.72 2.01,-1.83 3.8,-3.71 5.38,-5.64 1.22,-4.9 2.62,-9.88 4.2,-14.95 1.57,-5.07 3.06,-9.79 4.46,-14.16 -3.15,0 -5.59,-0.87 -7.34,-2.62z"/>
  <path id="2" class="fil0" d="M279.4 111.62c-1.22,4.9 -1.13,7.25 0.26,7.08 1.4,-0.17 3.63,-1.92 6.69,-5.24 3.06,-3.32 6.73,-7.65 11.01,-12.98 4.28,-5.33 8.61,-10.8 12.98,-16.39 0,0.17 0.26,0.57 0.79,1.18 0.52,0.61 0.96,1.44 1.31,2.49 0.35,1.05 0.39,2.27 0.13,3.67 -0.26,1.4 -1,2.89 -2.23,4.46 -3.5,4.2 -6.56,7.91 -9.18,11.15 -2.62,3.23 -5.16,6.16 -7.6,8.78 -2.45,2.62 -4.94,5.07 -7.47,7.34 -2.53,2.27 -5.46,4.55 -8.78,6.82 -1.75,1.4 -3.85,2.18 -6.29,2.36 -2.45,0.17 -4.72,-0.09 -6.82,-0.79 -2.1,-0.7 -3.89,-1.83 -5.38,-3.41 -1.49,-1.57 -2.14,-3.41 -1.97,-5.51 0.35,-4.02 0.96,-8.21 1.84,-12.59 0.87,-4.37 2.01,-9.09 3.41,-14.16 1.75,-6.47 3.63,-13.02 5.64,-19.67 2.01,-6.64 3.98,-13.02 5.9,-19.14 1.92,-6.12 3.8,-11.76 5.64,-16.91 1.83,-5.16 3.45,-9.48 4.85,-12.98 0.87,-2.1 2.45,-3.5 4.72,-4.19 2.27,-0.7 4.55,-1.01 6.82,-0.92 2.27,0.09 4.24,0.48 5.9,1.18 1.66,0.7 2.4,1.4 2.23,2.1l-24.39 86.27z"/>
  <path id="3" class="fil0" d="M321.88 111.62c-1.22,4.9 -1.13,7.25 0.26,7.08 1.4,-0.17 3.63,-1.92 6.69,-5.24 3.06,-3.32 6.73,-7.65 11.01,-12.98 4.28,-5.33 8.61,-10.8 12.98,-16.39 0,0.17 0.26,0.57 0.79,1.18 0.52,0.61 0.96,1.44 1.31,2.49 0.35,1.05 0.39,2.27 0.13,3.67 -0.26,1.4 -1,2.89 -2.23,4.46 -3.5,4.2 -6.56,7.91 -9.18,11.15 -2.62,3.23 -5.16,6.16 -7.6,8.78 -2.45,2.62 -4.94,5.07 -7.47,7.34 -2.53,2.27 -5.46,4.55 -8.78,6.82 -1.75,1.4 -3.85,2.18 -6.29,2.36 -2.45,0.17 -4.72,-0.09 -6.82,-0.79 -2.1,-0.7 -3.89,-1.83 -5.38,-3.41 -1.49,-1.57 -2.14,-3.41 -1.97,-5.51 0.35,-4.02 0.96,-8.21 1.84,-12.59 0.87,-4.37 2.01,-9.09 3.41,-14.16 1.75,-6.47 3.63,-13.02 5.64,-19.67 2.01,-6.64 3.98,-13.02 5.9,-19.14 1.92,-6.12 3.8,-11.76 5.64,-16.91 1.83,-5.16 3.45,-9.48 4.85,-12.98 0.87,-2.1 2.45,-3.5 4.72,-4.19 2.27,-0.7 4.55,-1.01 6.82,-0.92 2.27,0.09 4.24,0.48 5.9,1.18 1.66,0.7 2.4,1.4 2.23,2.1l-24.39 86.27z"/>
  <path id="4" class="fil0" d="M370.39 88.02l13.63 -19.67c0.17,-0.35 0.87,-1.27 2.1,-2.75 1.22,-1.48 2.67,-3.01 4.33,-4.59 1.66,-1.57 3.58,-2.97 5.77,-4.2 2.18,-1.22 4.41,-1.75 6.69,-1.57 3.15,0.17 5.33,0.87 6.56,2.1 1.22,1.22 2.01,2.53 2.36,3.93 0.35,1.75 0.17,4.2 -0.52,7.34 -0.7,3.15 -1.62,6.51 -2.75,10.1 -1.14,3.58 -2.23,7.12 -3.28,10.62 -1.05,3.5 -1.75,6.47 -2.1,8.92 -1.22,4.89 -1.18,7.82 0.13,8.78 1.31,0.96 3.37,0.52 6.16,-1.31 2.8,-1.83 6.07,-4.72 9.83,-8.65 3.76,-3.93 7.47,-8.26 11.15,-12.98 0,0.17 0.26,0.57 0.79,1.18 0.52,0.61 0.92,1.44 1.18,2.49 0.26,1.05 0.31,2.27 0.13,3.67 -0.17,1.4 -0.87,2.89 -2.1,4.46 -4.9,6.12 -10.1,11.15 -15.6,15.08 -5.51,3.93 -11.93,5.9 -19.27,5.9 -3.5,0 -6.69,-0.83 -9.57,-2.49 -2.88,-1.66 -4.59,-4.41 -5.11,-8.26 0,-1.05 0.17,-2.54 0.52,-4.46 0.35,-1.92 0.87,-3.98 1.57,-6.16 0.7,-2.19 1.4,-4.46 2.1,-6.82 0.7,-2.36 1.31,-4.41 1.84,-6.16 0.87,-2.62 1,-3.98 0.39,-4.07 -0.61,-0.09 -1.49,0.39 -2.62,1.44 -1.14,1.05 -2.32,2.36 -3.54,3.93 -1.22,1.57 -2.1,2.8 -2.62,3.67 -1.57,2.97 -3.76,6.51 -6.56,10.62 -2.8,4.11 -5.16,7.82 -7.08,11.15l-1.57 6.03c-2.1,7.69 -4.37,12.5 -6.82,14.42 -2.45,1.92 -5.68,2.8 -9.7,2.62 -2.62,-0.17 -4.68,-1.05 -6.16,-2.62 -1.49,-1.57 -1.88,-3.85 -1.18,-6.82 0.87,-4.2 1.92,-8.87 3.15,-14.03 1.22,-5.16 2.67,-10.53 4.33,-16.13 1.66,-5.59 3.45,-11.15 5.38,-16.65 1.92,-5.51 4.02,-10.8 6.29,-15.87 0.87,-2.1 2.4,-3.54 4.59,-4.33 2.19,-0.79 4.46,-1.09 6.82,-0.92 2.36,0.17 4.37,0.61 6.03,1.31 1.66,0.7 2.4,1.4 2.23,2.1l-7.87 29.63z"/>
  <path id="5" class="fil0" d="M444.87 132.86c-6.99,0 -12.32,-1.92 -16,-5.77 -3.67,-3.85 -5.86,-8.65 -6.56,-14.42 -0.7,-5.77 0,-12.02 2.1,-18.75 2.1,-6.73 5.38,-12.98 9.83,-18.75 4.46,-5.77 10.01,-10.58 16.65,-14.42 6.64,-3.85 14.16,-5.77 22.55,-5.77 6.47,0 11.36,1.62 14.69,4.85 3.32,3.23 5.33,7.38 6.03,12.46 0.7,5.07 0.22,10.66 -1.44,16.78 -1.66,6.12 -4.24,11.98 -7.74,17.57 2.45,0 4.98,-0.92 7.61,-2.75 2.62,-1.84 5.07,-3.98 7.34,-6.42 2.27,-2.45 4.37,-4.94 6.29,-7.47 1.92,-2.53 3.5,-4.5 4.72,-5.9 0,0.17 0.22,0.57 0.65,1.18 0.44,0.61 0.79,1.44 1.05,2.49 0.26,1.05 0.31,2.27 0.13,3.67 -0.17,1.4 -0.87,2.89 -2.1,4.46 -0.87,0.87 -1.57,1.75 -2.1,2.62 -0.52,0.87 -1.13,1.75 -1.83,2.62 -2.1,2.45 -4.24,4.59 -6.42,6.42 -2.18,1.83 -4.15,3.19 -5.9,4.06 -5.77,2.97 -11.19,4.37 -16.26,4.2 -4.37,5.07 -9.35,9.18 -14.95,12.32 -5.59,3.15 -11.71,4.72 -18.36,4.72zm3.67 -9.18c2.45,0 4.89,-1.4 7.34,-4.2 2.45,-2.75 4.9,-6.16 7.34,-10.18 -2.62,-2.58 -4.46,-5.9 -5.51,-9.92 -0.52,-2.27 -0.39,-4.2 0.39,-5.86 0.79,-1.66 1.92,-2.97 3.41,-3.93 1.48,-0.96 3.15,-1.44 4.98,-1.44 1.83,0 3.45,0.52 4.85,1.57 1.22,-3.8 2.23,-7.47 3.02,-10.97 0.79,-3.45 1.27,-6.6 1.44,-9.4 0.17,-2.8 -0.04,-4.98 -0.66,-6.64 -0.61,-1.66 -1.62,-2.49 -3.01,-2.49 -3.15,0 -6.38,1.57 -9.7,4.72 -3.32,3.1 -6.34,7.04 -9.05,11.71 -2.71,4.72 -5.07,9.79 -7.08,15.3 -2.01,5.46 -3.32,10.58 -3.93,15.3 -0.61,4.68 -0.48,8.61 0.39,11.71 0.87,3.15 2.8,4.72 5.77,4.72z"/>
  <path id="6" class="fil0" d="M525.37 132.86c-6.99,0 -12.32,-1.92 -16,-5.77 -3.67,-3.85 -5.86,-8.65 -6.56,-14.42 -0.7,-5.77 0,-12.02 2.1,-18.75 2.1,-6.73 5.38,-12.98 9.83,-18.75 4.46,-5.77 10.01,-10.58 16.65,-14.42 6.64,-3.85 14.16,-5.77 22.55,-5.77 6.47,0 11.36,1.62 14.69,4.85 3.32,3.23 5.33,7.38 6.03,12.46 0.7,5.07 0.22,10.66 -1.44,16.78 -1.66,6.12 -4.24,11.98 -7.74,17.57 2.45,0 4.98,-0.92 7.61,-2.75 2.62,-1.84 5.07,-3.98 7.34,-6.42 2.27,-2.45 4.37,-4.94 6.29,-7.47 1.92,-2.53 3.5,-4.5 4.72,-5.9 0,0.17 0.22,0.57 0.65,1.18 0.44,0.61 0.79,1.44 1.05,2.49 0.26,1.05 0.31,2.27 0.13,3.67 -0.17,1.4 -0.87,2.89 -2.1,4.46 -0.87,0.87 -1.57,1.75 -2.1,2.62 -0.52,0.87 -1.13,1.75 -1.83,2.62 -2.1,2.45 -4.24,4.59 -6.42,6.42 -2.18,1.83 -4.15,3.19 -5.9,4.06 -5.77,2.97 -11.19,4.37 -16.26,4.2 -4.37,5.07 -9.35,9.18 -14.95,12.32 -5.59,3.15 -11.71,4.72 -18.36,4.72zm3.67 -9.18c2.45,0 4.89,-1.4 7.34,-4.2 2.45,-2.75 4.9,-6.16 7.34,-10.18 -2.62,-2.58 -4.46,-5.9 -5.51,-9.92 -0.52,-2.27 -0.39,-4.2 0.39,-5.86 0.79,-1.66 1.92,-2.97 3.41,-3.93 1.48,-0.96 3.15,-1.44 4.98,-1.44 1.83,0 3.45,0.52 4.85,1.57 1.22,-3.8 2.23,-7.47 3.02,-10.97 0.79,-3.45 1.27,-6.6 1.44,-9.4 0.17,-2.8 -0.04,-4.98 -0.66,-6.64 -0.61,-1.66 -1.62,-2.49 -3.01,-2.49 -3.15,0 -6.38,1.57 -9.7,4.72 -3.32,3.1 -6.34,7.04 -9.05,11.71 -2.71,4.72 -5.07,9.79 -7.08,15.3 -2.01,5.46 -3.32,10.58 -3.93,15.3 -0.61,4.68 -0.48,8.61 0.39,11.71 0.87,3.15 2.8,4.72 5.77,4.72z"/>
  <path id="7" class="fil0" d="M648.62 62.85c0.35,1.05 0.26,3.59 -0.26,7.61 -0.52,4.02 -1.4,8.83 -2.62,14.42l10.23 -16.78c0.17,-0.35 0.7,-1.22 1.57,-2.62 0.87,-1.4 2.01,-2.88 3.41,-4.46 1.4,-1.57 3.06,-2.93 4.98,-4.07 1.92,-1.13 4.02,-1.7 6.29,-1.7 2.45,0.17 4.68,0.87 6.69,2.1 2.01,1.22 3.28,3.06 3.8,5.51 0.52,1.92 0.61,4.2 0.26,6.82 -0.35,2.62 -1.05,5.81 -2.1,9.57 -1.05,3.76 -2.4,8.26 -4.07,13.5 -1.66,5.25 -3.54,11.54 -5.64,18.88 -1.22,4.9 -1.14,7.25 0.26,7.08 1.4,-0.17 3.63,-1.92 6.69,-5.24 3.06,-3.32 6.73,-7.65 11.01,-12.98 4.28,-5.33 8.61,-10.8 12.98,-16.39 0,0.17 0.26,0.57 0.79,1.18 0.52,0.61 0.96,1.44 1.31,2.49 0.35,1.05 0.39,2.27 0.13,3.67 -0.26,1.4 -1,2.89 -2.23,4.46 -3.5,4.2 -6.56,7.91 -9.18,11.15 -2.62,3.23 -5.16,6.16 -7.6,8.78 -2.45,2.62 -4.94,5.07 -7.47,7.34 -2.53,2.27 -5.46,4.55 -8.78,6.82 -1.92,1.4 -4.07,2.18 -6.42,2.36 -2.36,0.17 -4.63,-0.09 -6.82,-0.79 -2.18,-0.7 -4.02,-1.83 -5.51,-3.41 -1.49,-1.57 -2.14,-3.41 -1.97,-5.51 0.35,-5.94 1.44,-12.11 3.28,-18.49 1.83,-6.38 4.06,-13.59 6.69,-21.63 0.52,-1.75 0.66,-2.67 0.39,-2.75 -0.26,-0.09 -0.7,0.31 -1.31,1.18 -0.61,0.87 -1.31,1.97 -2.1,3.28 -0.79,1.31 -1.44,2.4 -1.97,3.28 -1.75,2.97 -3.98,6.51 -6.69,10.62 -2.71,4.11 -5.03,7.82 -6.95,11.15 -0.35,1.05 -0.65,2.1 -0.92,3.15 -0.26,1.05 -0.57,2.01 -0.92,2.88 -2.1,7.69 -4.33,12.5 -6.69,14.42 -2.36,1.92 -5.55,2.8 -9.57,2.62 -5.94,-0.35 -8.83,-3.5 -8.65,-9.44 0.35,-5.94 1.62,-12.15 3.8,-18.62 2.19,-6.47 4.59,-13.72 7.21,-21.76 0.52,-1.75 0.57,-2.62 0.13,-2.62 -0.44,0 -1,0.44 -1.7,1.31 -0.7,0.87 -1.48,2.01 -2.36,3.41 -0.87,1.4 -1.49,2.53 -1.84,3.41 -1.92,3.32 -4.5,7.3 -7.73,11.93 -3.23,4.63 -5.9,8.61 -8,11.93l-0.79 3.41c-2.1,7.69 -4.37,12.5 -6.82,14.42 -2.45,1.92 -5.68,2.8 -9.7,2.62 -2.62,-0.17 -4.68,-1.05 -6.16,-2.62 -1.49,-1.57 -1.88,-3.85 -1.18,-6.82 0.87,-4.2 1.92,-8.87 3.15,-14.03 1.22,-5.16 2.67,-10.53 4.33,-16.13 1.66,-5.59 3.45,-11.15 5.38,-16.65 1.92,-5.51 4.02,-10.8 6.29,-15.87 0.87,-2.1 2.4,-3.54 4.59,-4.33 2.19,-0.79 4.46,-1.09 6.82,-0.92 2.36,0.17 4.37,0.61 6.03,1.31 1.66,0.7 2.4,1.4 2.23,2.1l-8.13 30.94 12.85 -21.24c0.35,-0.35 0.96,-1.22 1.83,-2.62 0.87,-1.4 2.01,-2.88 3.41,-4.46 1.4,-1.57 3.02,-2.93 4.85,-4.07 1.83,-1.13 3.89,-1.7 6.16,-1.7 5.59,0.35 9.26,2.89 11.01,7.6z"/>
  <path class="fil1" d="M142.84 213.96c4.02,0.17 7.34,0.83 9.96,1.97 2.62,1.13 4.63,2.53 6.03,4.2 1.4,1.66 2.27,3.41 2.62,5.24 0.35,1.84 0.35,3.54 0,5.11 -2.1,8.74 -4.42,17.92 -6.95,27.53 -2.53,9.62 -5.03,19.01 -7.47,28.19 -2.45,9.18 -4.81,17.79 -7.08,25.83 -2.27,8.04 -4.2,14.86 -5.77,20.45 -4.55,-0.52 -8.7,-1.35 -12.46,-2.49 -3.76,-1.14 -6.86,-2.67 -9.31,-4.59 -2.45,-1.92 -4.11,-4.24 -4.98,-6.95 -0.87,-2.71 -0.52,-6.07 1.05,-10.1 1.75,-4.9 3.98,-11.19 6.69,-18.88 2.71,-7.69 5.59,-15.87 8.65,-24.52 3.06,-8.65 6.25,-17.44 9.57,-26.35 3.32,-8.91 6.47,-17.13 9.44,-24.65zm-12.06 122.72c16.61,0 30.94,-2.84 43,-8.52 12.06,-5.68 21.85,-12.85 29.37,-21.5 7.52,-8.65 12.72,-18.18 15.6,-28.58 2.88,-10.4 3.45,-20.23 1.7,-29.5 -1.05,-5.42 -3.02,-10.49 -5.9,-15.21 -2.88,-4.72 -6.6,-8.83 -11.15,-12.32 -4.55,-3.5 -10.05,-6.21 -16.52,-8.13 -6.47,-1.92 -13.9,-2.88 -22.29,-2.88 -14.68,0.17 -27.97,2.66 -39.86,7.47 -11.89,4.81 -21.72,10.58 -29.5,17.31 -7.78,6.73 -13.24,13.68 -16.39,20.85 -3.15,7.17 -3.24,13.11 -0.26,17.83 -7.69,-0.7 -13.81,-2.27 -18.36,-4.72 -4.55,-2.45 -7.87,-5.25 -9.96,-8.39 -2.1,-3.15 -3.02,-6.47 -2.75,-9.97 0.26,-3.5 1.44,-6.56 3.54,-9.18 4.2,-5.25 10.36,-10.18 18.49,-14.82 8.13,-4.63 17.22,-8.65 27.27,-12.06 10.05,-3.45 20.76,-6.16 32.12,-8.13 11.36,-2.01 22.46,-2.93 33.3,-2.75 14.33,0.17 26.53,1.4 36.58,3.67 10.05,2.27 18.36,5.29 24.91,9.09 6.56,3.76 11.67,8.26 15.34,13.5 3.67,5.25 6.38,10.88 8.13,16.83 3.15,10.32 3.02,21.24 -0.39,32.69 -3.41,11.5 -9.83,22.03 -19.27,31.69 -9.44,9.61 -21.85,17.61 -37.24,24.04 -15.39,6.38 -33.65,9.66 -54.81,9.83 -10.14,0 -19.62,-0.83 -28.45,-2.49 -8.83,-1.66 -16.56,-3.98 -23.21,-6.95 -6.64,-2.97 -11.89,-6.51 -15.73,-10.62 -3.85,-4.11 -5.86,-8.52 -6.03,-13.24 0,-2.27 0.61,-4.24 1.83,-5.9 1.22,-1.66 2.84,-2.93 4.85,-3.8 2.01,-0.87 4.28,-1.44 6.82,-1.7 2.53,-0.26 5.03,-0.13 7.47,0.39 -0.52,4.55 0.26,8.96 2.36,13.24 2.1,4.28 5.25,8.13 9.44,11.54 4.2,3.41 9.35,6.16 15.47,8.26 6.12,2.1 12.94,3.15 20.45,3.15z"/>
  <path id="1" class="fil1" d="M323.26 266.4c0.7,3.67 -0.52,6.82 -3.67,9.44 1.4,0.35 2.54,0.7 3.41,1.05 0.87,0.35 1.22,0.7 1.05,1.05 -1.4,6.47 -3.15,12.67 -5.24,18.62 -2.1,5.94 -3.85,11.98 -5.25,18.09 -1.22,4.9 -1.18,7.25 0.13,7.08 1.31,-0.17 3.45,-1.92 6.42,-5.24 2.97,-3.32 6.51,-7.65 10.62,-12.98 4.11,-5.33 8.35,-10.8 12.72,-16.39 0,0.17 0.26,0.57 0.79,1.18 0.52,0.61 0.96,1.44 1.31,2.49 0.35,1.05 0.39,2.27 0.13,3.67 -0.26,1.4 -1,2.89 -2.23,4.46 -3.5,4.2 -6.56,7.91 -9.18,11.15 -2.62,3.23 -5.16,6.16 -7.6,8.78 -2.45,2.62 -4.94,5.07 -7.47,7.34 -2.53,2.27 -5.46,4.55 -8.78,6.82 -1.75,1.4 -3.72,2.27 -5.9,2.62 -2.19,0.35 -4.28,0.31 -6.29,-0.13 -2.01,-0.44 -3.76,-1.18 -5.24,-2.23 -1.49,-1.05 -2.4,-2.27 -2.75,-3.67 -0.35,-1.22 -0.48,-2.53 -0.39,-3.93 0.09,-1.4 0.22,-2.88 0.39,-4.46 -3.85,3.67 -8.04,6.99 -12.59,9.96 -4.55,2.97 -8.83,4.46 -12.85,4.46 -3.85,0 -6.9,-0.79 -9.18,-2.36 -2.27,-1.57 -3.76,-3.59 -4.46,-6.03 -1.75,-5.94 -1.66,-12.94 0.26,-20.98 1.92,-8.04 5.29,-15.69 10.1,-22.94 4.81,-7.26 10.93,-13.37 18.36,-18.36 7.43,-4.98 15.78,-7.38 25.04,-7.21 4.37,0 8.35,0.7 11.93,2.1 3.58,1.4 5.73,3.58 6.42,6.56zm-29.63 12.59c4.55,-0.87 8.08,-2.27 10.62,-4.2 2.53,-1.92 4.15,-4.2 4.85,-6.82 0.17,-1.05 -0.31,-2.18 -1.44,-3.41 -1.14,-1.22 -3.1,-1.4 -5.9,-0.52 -3.85,1.05 -7.56,4.15 -11.15,9.31 -3.58,5.16 -6.73,10.84 -9.44,17.05 -2.71,6.21 -4.77,12.28 -6.16,18.22 -1.4,5.94 -1.84,10.31 -1.31,13.11 0.17,1.4 1,1.97 2.49,1.71 1.48,-0.26 3.15,-1.05 4.98,-2.36 1.83,-1.31 3.76,-2.88 5.77,-4.72 2.01,-1.83 3.8,-3.71 5.38,-5.64 1.22,-4.9 2.62,-9.88 4.2,-14.95 1.57,-5.07 3.06,-9.79 4.46,-14.16 -3.15,0 -5.59,-0.87 -7.34,-2.62z"/>
  <path id="2" class="fil1" d="M360.49 292.1c5.07,-6.47 9.48,-11.89 13.24,-16.26 3.76,-4.37 7.08,-7.87 9.97,-10.49 2.88,-2.62 5.38,-4.42 7.47,-5.38 2.1,-0.96 4.02,-1.44 5.77,-1.44 5.42,0 8.65,2.45 9.7,7.34 0.52,1.92 0.61,4.2 0.26,6.82 -0.35,2.62 -1.05,5.81 -2.1,9.57 -1.05,3.76 -2.4,8.26 -4.07,13.5 -1.66,5.25 -3.54,11.54 -5.64,18.88 -1.22,4.9 -1.14,7.25 0.26,7.08 1.4,-0.17 3.63,-1.92 6.69,-5.24 3.06,-3.32 6.73,-7.65 11.01,-12.98 4.28,-5.33 8.61,-10.8 12.98,-16.39 0,0.17 0.26,0.57 0.79,1.18 0.52,0.61 0.96,1.44 1.31,2.49 0.35,1.05 0.39,2.27 0.13,3.67 -0.26,1.4 -1,2.89 -2.23,4.46 -3.5,4.2 -6.56,7.91 -9.18,11.15 -2.62,3.23 -5.16,6.16 -7.6,8.78 -2.45,2.62 -4.94,5.07 -7.47,7.34 -2.53,2.27 -5.46,4.55 -8.78,6.82 -1.92,1.4 -4.07,2.18 -6.42,2.36 -2.36,0.17 -4.63,-0.09 -6.82,-0.79 -2.19,-0.7 -4.02,-1.83 -5.51,-3.41 -1.49,-1.57 -2.14,-3.41 -1.97,-5.51 0.35,-5.59 1.35,-11.67 3.02,-18.22 1.66,-6.56 3.71,-13.42 6.16,-20.59 0.7,-2.27 0.57,-3.67 -0.39,-4.2 -0.96,-0.52 -2.4,0.17 -4.33,2.1 -2.8,2.8 -6.16,6.47 -10.1,11.01 -3.93,4.55 -7.39,8.74 -10.36,12.59l-2.62 9.96c-2.1,7.69 -4.37,12.5 -6.82,14.42 -2.45,1.92 -5.68,2.8 -9.7,2.62 -2.62,-0.17 -4.68,-1.05 -6.16,-2.62 -1.49,-1.57 -1.88,-3.85 -1.18,-6.82 0.87,-4.2 1.92,-8.87 3.15,-14.03 1.22,-5.16 2.67,-10.53 4.33,-16.13 1.66,-5.59 3.45,-11.15 5.38,-16.65 1.92,-5.51 4.02,-10.8 6.29,-15.87 0.87,-2.1 2.4,-3.54 4.59,-4.33 2.19,-0.79 4.46,-1.09 6.82,-0.92 2.36,0.17 4.37,0.61 6.03,1.31 1.66,0.7 2.4,1.4 2.23,2.1l-8.13 30.68z"/>
  <path id="3" class="fil1" d="M456.46 333.53c-1.92,1.05 -4.63,1.84 -8.13,2.36 -3.5,0.52 -7.12,0.48 -10.88,-0.13 -3.76,-0.61 -7.39,-2.05 -10.88,-4.33 -3.5,-2.27 -6.12,-5.77 -7.87,-10.49 -2.27,-6.12 -2.45,-13.07 -0.52,-20.85 1.92,-7.78 5.42,-14.95 10.49,-21.5 5.07,-6.56 11.5,-11.84 19.27,-15.87 7.78,-4.02 16.39,-5.42 25.83,-4.2 5.94,0.87 9.88,2.67 11.8,5.38 1.92,2.71 3.06,4.94 3.41,6.69 0.7,3.85 -0.13,7.47 -2.49,10.88 -2.36,3.41 -5.38,6.03 -9.05,7.87 -3.67,1.84 -7.52,2.71 -11.54,2.62 -4.02,-0.09 -7.34,-1.7 -9.97,-4.85 2.1,-0.52 4.15,-1.4 6.16,-2.62 2.01,-1.22 3.8,-2.67 5.38,-4.33 1.57,-1.66 2.8,-3.45 3.67,-5.38 0.87,-1.92 1.22,-3.85 1.05,-5.77 0,-1.22 -0.31,-2.58 -0.92,-4.07 -0.61,-1.48 -2.32,-1.79 -5.11,-0.92 -3.85,1.05 -7.6,3.8 -11.28,8.26 -3.67,4.46 -6.86,9.48 -9.57,15.08 -2.71,5.59 -4.68,11.23 -5.9,16.91 -1.22,5.68 -1.31,10.45 -0.26,14.29 1.05,3.67 2.84,6.07 5.38,7.21 2.53,1.14 5.51,1.27 8.92,0.39 3.41,-0.87 7.08,-2.58 11.01,-5.11 3.93,-2.53 7.82,-5.55 11.67,-9.05 3.5,-3.15 6.99,-6.99 10.49,-11.54 3.5,-4.55 6.99,-9 10.49,-13.37 0,0.17 0.26,0.57 0.79,1.18 0.52,0.61 0.96,1.44 1.31,2.49 0.35,1.05 0.39,2.27 0.13,3.67 -0.26,1.4 -1,2.89 -2.23,4.46 -6.99,8.57 -13.55,15.56 -19.67,20.98 -6.12,5.42 -13.11,9.96 -20.98,13.63z"/>
  <path id="4" class="fil1" d="M528.31 333.53c-1.92,1.05 -4.63,1.84 -8.13,2.36 -3.5,0.52 -7.12,0.48 -10.88,-0.13 -3.76,-0.61 -7.39,-2.05 -10.88,-4.33 -3.5,-2.27 -6.12,-5.77 -7.87,-10.49 -2.27,-6.12 -2.45,-13.07 -0.52,-20.85 1.92,-7.78 5.42,-14.95 10.49,-21.5 5.07,-6.56 11.5,-11.84 19.27,-15.87 7.78,-4.02 16.39,-5.42 25.83,-4.2 5.94,0.87 9.88,2.67 11.8,5.38 1.92,2.71 3.06,4.94 3.41,6.69 0.7,4.55 -0.57,9.05 -3.8,13.5 -3.24,4.46 -7.39,8.35 -12.46,11.67 -5.07,3.32 -10.62,5.73 -16.65,7.21 -6.03,1.48 -11.5,1.62 -16.39,0.39 -1.4,6.12 -1.57,11.19 -0.52,15.21 1.05,3.67 2.84,6.07 5.38,7.21 2.53,1.14 5.51,1.27 8.92,0.39 3.41,-0.87 7.08,-2.58 11.01,-5.11 3.93,-2.53 7.82,-5.55 11.67,-9.05 3.5,-3.15 6.99,-6.99 10.49,-11.54 3.5,-4.55 6.99,-9 10.49,-13.37 0,0.17 0.26,0.57 0.79,1.18 0.52,0.61 0.96,1.44 1.31,2.49 0.35,1.05 0.39,2.27 0.13,3.67 -0.26,1.4 -1,2.89 -2.23,4.46 -6.99,8.57 -13.55,15.56 -19.67,20.98 -6.12,5.42 -13.11,9.96 -20.98,13.63zm9.7 -69.49c-2.62,0.87 -5.16,2.45 -7.6,4.72 -2.45,2.27 -4.81,4.98 -7.08,8.13 -2.27,3.15 -4.28,6.6 -6.03,10.36 -1.75,3.76 -3.23,7.47 -4.46,11.14 3.67,-1.05 7.43,-2.71 11.28,-4.98 3.85,-2.27 7.3,-4.77 10.36,-7.47 3.06,-2.71 5.46,-5.55 7.21,-8.52 1.75,-2.97 2.53,-5.77 2.36,-8.39 0,-1.22 -0.31,-2.58 -0.92,-4.07 -0.61,-1.48 -2.32,-1.79 -5.11,-0.92z"/>
  <path id="5" class="fil1" d="M577.09 323.83c0.7,1.92 1.88,3.32 3.54,4.2 1.66,0.87 3.19,1.31 4.59,1.31 2.97,0.17 5.51,-0.44 7.6,-1.84 2.1,-1.4 3.58,-2.88 4.46,-4.46 1.75,-2.27 2.01,-4.46 0.79,-6.56 -1.22,-2.1 -3.15,-4.2 -5.77,-6.29 -2.62,-2.1 -5.73,-4.24 -9.31,-6.42 -3.58,-2.18 -6.86,-4.46 -9.83,-6.82 -2.97,-2.36 -5.33,-4.85 -7.08,-7.47 -1.75,-2.62 -2.19,-5.51 -1.31,-8.65 1.92,-6.82 5.99,-12.37 12.19,-16.65 6.21,-4.28 14.2,-6.51 23.99,-6.69 8.74,-0.17 15.47,1 20.19,3.54 4.72,2.54 7.78,6.25 9.18,11.15 1.05,4.02 0.39,7.6 -1.97,10.75 -2.36,3.15 -5.42,5.59 -9.18,7.34 -3.76,1.75 -7.78,2.45 -12.06,2.1 -4.28,-0.35 -7.82,-2.1 -10.62,-5.25 4.55,-0.87 8.09,-3.1 10.62,-6.69 2.53,-3.58 4.07,-7.12 4.59,-10.62 0.17,-3.32 -0.61,-5.2 -2.36,-5.64 -1.75,-0.44 -3.89,-0.04 -6.42,1.18 -2.53,1.22 -5.11,2.93 -7.73,5.11 -2.62,2.18 -4.55,4.15 -5.77,5.9 -1.92,2.45 -2.58,4.63 -1.97,6.56 0.61,1.92 1.97,3.72 4.07,5.38 2.1,1.66 4.63,3.32 7.6,4.98 2.97,1.66 5.86,3.45 8.65,5.38 2.8,1.92 5.25,4.11 7.34,6.56 2.1,2.45 3.23,5.24 3.41,8.39 0.52,6.12 -1.97,11.32 -7.47,15.6 -5.51,4.28 -13.33,6.42 -23.47,6.42 -4.72,0 -9,-0.48 -12.85,-1.44 -3.85,-0.96 -7.08,-2.36 -9.7,-4.2 -2.62,-1.84 -4.5,-3.98 -5.64,-6.42 -1.14,-2.45 -1.27,-4.98 -0.39,-7.6 0.7,-2.62 2.32,-4.81 4.85,-6.56 2.53,-1.75 5.42,-2.84 8.65,-3.28 3.23,-0.44 6.56,-0.13 9.96,0.92 3.41,1.05 6.34,3.06 8.79,6.03 -4.55,0.87 -8.26,2.23 -11.15,4.06 -2.88,1.84 -3.89,4.07 -3.02,6.69z"/>
 </g>
</svg>
