<?xml version="1.0" encoding="UTF-8"?>
<!DOCTYPE svg PUBLIC "-//W3C//DTD SVG 1.1//EN" "http://www.w3.org/Graphics/SVG/1.1/DTD/svg11.dtd">
<!-- Creator: CorelDRAW 2020 (64-Bit) -->
<svg xmlns="http://www.w3.org/2000/svg" xml:space="preserve" width="76.9632mm" height="50.6825mm" version="1.1" style="shape-rendering:geometricPrecision; text-rendering:geometricPrecision; image-rendering:optimizeQuality; fill-rule:evenodd; clip-rule:evenodd"
viewBox="0 0 4528.9 2982.41"
 xmlns:xlink="http://www.w3.org/1999/xlink"
 xmlns:xodm="http://www.corel.com/coreldraw/odm/2003">
 <defs>
  <style type="text/css">
   <![CDATA[
    .fil0 {fill:red}
    .fil1 {fill:black;fill-rule:nonzero}
   ]]>
  </style>
 </defs>
 <g id="Layer_x0020_1">
  <metadata id="CorelCorpID_0Corel-Layer"/>
  <g id="_1413650704">
   <path class="fil0" d="M1275.21 2167.54c-26.99,-52.1 -156.06,-152.27 -126.35,-223.5 15.95,9.39 3.65,21.21 28.96,59.28 61.77,92.9 148.12,178.89 213.83,279.7 8.04,12.33 10.93,12.98 19.74,25.1 12.38,17.02 26.78,38.44 38.21,56.41 35.83,56.35 84.67,142.54 104.46,209.92 30.88,105.14 20.45,148.64 32.97,195.77 12,45.19 -26.27,51.41 -55.77,69.12 -19.9,11.95 -17.34,13 -15.49,37.56 48.44,19.82 136.87,32.27 187.82,5.01 72.16,-38.63 8.99,-132.84 72.6,-149.81 37.98,18.35 58.73,137.69 86.58,104.91 14.29,-12.63 0.44,-22.23 -7.22,-36.29 -27.55,-50.57 -36.73,-91.17 -34.06,-150.03 3.05,-67.18 -40.75,-118.65 -79.59,-164.87 -39.66,-47.19 -64.19,-87.3 -94.96,-149.25 -13.93,-28.05 -57.89,-159.5 -45.14,-193.03 27.53,-17.04 100.97,6.4 139.46,-1.1l17.01 -31.97c21.1,41.3 44.89,110.31 62.36,156.92 4.56,12.16 6.11,27.34 10.66,39.61l43.43 100.84c28.81,52.1 106.7,184.12 173.85,161.56 20.94,-60.63 -27.92,-90.35 -9.62,-123.77 1.18,-0.58 3.15,-2.42 3.75,-1.18l11.29 -1.39c42.06,5.13 119.1,191.86 128.45,220.23 12.58,38.11 45.42,106.17 94.17,74.59 64.86,-42.01 -14.71,-96.36 27.67,-134.91 39.79,1.05 53.76,47.56 72.04,80.57 59.88,108.15 58.17,205.34 173.94,63.78l184.56 -278.6c12.08,-22.97 52.75,-71.53 71.87,-88 27.12,-23.35 74.05,-70.84 111.71,-53.74 -4.65,17.29 -64.8,41.32 -83.65,52.3 -29.36,17.09 -60.56,38.46 -59.07,77.24 47,40.56 149.01,87.13 212.73,93.3 20.8,2.01 51.9,0.13 69.03,4.97 11.52,3.25 37.05,13.59 55.8,20.04 11.49,3.95 11.7,5.98 23.44,10.71 112.23,45.25 179.53,90.6 323.31,101.58 107.91,8.24 156.73,21.56 239.2,63.43l145.75 78.38c53.76,28.3 149.27,23.89 186.41,42.66 46.69,23.59 68.32,25.57 125.35,17.84 40.58,-5.5 89.13,-3.27 89.34,-59.35 0.29,-75.28 -102.47,-133.78 -173.02,-131.77 -69.74,1.99 -76.07,5.68 -131.71,-20.2 -60.69,-28.23 -67.38,-17.29 -132.66,-15.45 -48.65,1.37 -141.62,-83.07 -192.26,-113.19 -99.01,-58.91 -197.95,-111.61 -310.91,-147.17 -82.74,-26.04 -144.52,-44.07 -222.77,-81.26 -23.38,-11.12 -59.97,-43.87 -87.53,-62.23l-167.24 -136.69c-26.97,-23.35 -55.7,-50.9 -81.91,-72.46l-76.64 -72.81c-21.85,-19.82 -55.24,-54.61 -74.89,-79.61 -11.69,-14.87 -21.25,-23.61 -33.8,-41.01 -9.9,-13.75 -21.21,-30.32 -31.36,-48.35 -10.16,-18.05 -15.72,-26.84 -23.2,-51.72 -11.6,-38.55 -0.77,-33.8 -3.34,-66.89 -13.19,-8.97 -29.16,-10.55 -44.07,-10.36 -26.34,11.2 -0.24,50.67 -115.38,-13.69 -60.12,-33.6 -59.66,-29.49 -83.22,-85.48l-31.99 -5.9c-48.05,51.75 -26.96,61.82 -175.37,-31.61 -45.54,-28.68 -84.42,-53.37 -124.79,-84.38 -60.29,-46.31 -114.19,-91.12 -151.27,-157.76 -24.89,-44.73 -89.77,-60.58 -160.49,-148.38 -30.99,-38.48 -64.91,-65.08 -85.93,-122.88 -7.89,-21.71 -14.53,-57.67 -23.07,-77.27l-31.4 -72.77c-32.47,-73.58 -27.55,-87.56 -40.14,-169.66 -24.74,3.42 -19.98,-1.06 -27.12,25.1 -38.15,139.87 -41.22,96.07 -40.93,282.45 0.15,98.68 28.38,262.31 -10.14,343.53 -19.87,41.89 -42.04,82.63 -48.91,134.98 -6.27,47.85 -31.39,102.12 -52.53,137.21 -47.32,78.59 -93.2,156.97 -146.79,226.93 -43.35,56.59 -169.08,193.35 -230.93,232.36 -68.94,43.48 -77.91,34.92 -174.9,109.15 -70.91,54.27 -128.76,118.66 -193.15,180.52l-134.31 144.73c-32.65,36.51 -101.55,114.1 -151,127.67 -85.38,23.43 -124.37,32.85 -170.19,104.13 -38.86,60.45 -89.21,139.42 -21.59,201.13 78.66,71.79 144.16,-39.79 193.45,-89.03 32.09,-32.06 203.45,-192.27 229.96,-195.42 22.48,-2.67 38.67,22.5 55.67,34.41 103.91,72.79 100.75,62.63 179.24,-1.9l443.15 -393.87c36.47,-35.21 110.21,-107.95 140.53,-145.64z"/>
   <path class="fil0" d="M1763.4 468.61c-5.78,6.16 -2.57,2.21 -9.69,7.08 -3.76,2.58 -7.06,3.86 -9.4,6.11 -11.16,10.72 -6.62,-0.01 -8.69,21.94l-32.81 0.24c-5.08,45.03 10.26,54.94 17.27,90.75 6.27,32.04 14.01,66.11 18.83,95.2 6.76,40.74 11.68,173.92 28.58,195.98 7.1,9.26 54.51,45.13 103.24,120.91l87.01 137.19c37.5,61.78 33.31,72.3 97.08,127.12 23.23,19.97 250.45,178.91 266.17,182.13 31.83,6.51 65.29,-11.65 106.53,-2.12 32.25,7.46 56.41,35.6 76.08,39.43 39.2,-27.84 32.24,-123.76 118.93,-69.77 28.94,18.02 118.47,52.28 154.04,65.02 84.66,30.33 216.53,34.58 281.3,47.11 42.09,8.14 110.13,49.95 264.45,64.41 35.49,3.32 60.57,13.52 97.98,12.1 40.26,-1.53 70.76,6.31 103.81,4.42 57.93,-3.31 37.51,-9.33 77.8,23.28 9.29,7.52 19.9,14.89 29.62,25.23 13.56,14.43 12.91,12.77 30.41,24.33 26.27,17.35 45.07,26.85 63.34,46.35 17.93,19.13 28.43,45.08 64.37,45.21 7.07,-10.09 8.16,-20.12 15.88,-31.79 48.22,-0.57 70.31,66.21 113.02,70.75l14.12 -12.92c-0.61,-19.11 -15.19,-34.42 -24.68,-50.26 4.3,-2.78 83.46,-6.96 -9.03,-54.93l-177.15 -92.17c-55.48,-33.14 -77.09,-54.34 -132.12,-71.86 -20.14,-6.41 -21.96,-14.71 -49.18,-19.94 -55.09,-10.59 -97.1,-32.6 -144.74,-55.53 -16.85,-8.11 -37.7,-10.06 -53.08,-16.5 -64.69,-27.07 -157.61,-43.31 -226.02,-48.87 -50.09,-4.07 -56.54,-23.3 -92,-41.46 -78.66,-40.26 -132.95,-53.15 -193.51,-80.58 -16.79,-7.6 -33.35,-8.63 -48.68,-16.05 -29.49,-14.28 -44.49,-67.54 -116.81,-93.2 -36.2,-12.85 -71.94,-14.77 -111.06,-23.67 -23.9,-5.44 -60.45,-57.6 -35.06,-82.19 18.88,-15.64 18.68,9.39 76.1,-23.24 74.35,-42.25 88.76,-63.39 125.72,-123.08 5.35,-8.65 14.52,-18.09 21.98,-28.03 22.73,-30.24 41.32,-119.93 33.92,-164.04 -22.24,-132.73 -229.4,-175.95 -304.22,-61.52 -41.04,62.76 -17.14,38.49 -49.43,55.3 -15.55,8.1 -14.12,10.03 -21.14,28.31 -5.91,15.39 -10.79,24.98 -8.13,40.82 4.99,29.74 26.14,26.34 13.39,85.33 -5.4,24.98 -7.1,6.97 -17.94,31.43 -6.88,15.53 -4.3,19.24 -13.28,35.85 -11.5,21.27 -30.02,48.22 -42.61,60.7 -59.04,12.28 -40.29,-38.02 -109.32,-37.84 -39.47,0.1 -68.78,-31.81 -91.35,-63.39 -27.16,-38.01 18.17,-112.89 -24.36,-194.66 -9.07,-17.42 -25.71,-32.79 -31.27,-51.05 18.47,-30.13 55.66,-30.7 72.53,-44.03 19.92,-15.76 -5.54,-21.02 78.32,-42.1 31.49,-7.91 28.85,-45.03 30.78,-83.41 2.69,-53.51 22.52,-32.62 44.9,-74.62 45,-84.45 71.85,-183.49 -8.93,-259.89 -24.46,-23.13 -44.17,-28.33 -72.44,-47.18 -48.76,-32.51 -104.82,-53.83 -185.6,-34.17 -58.43,14.22 -105.19,60.7 -128.54,104.89 -37.17,70.36 -22.05,154.87 -57.46,176.91 -31.22,19.44 -51.64,-16.68 -82.04,32.69 -10.63,17.27 -2.46,29.83 -4.65,45.95 -3.12,22.96 -4.94,-4.25 -6.07,20.42 -0.51,11.18 3.19,5.63 4.98,25.17z"/>
  </g>
  <path class="fil1" d="M3791 330.48c13.25,0.58 24.2,2.74 32.84,6.48 8.64,3.74 15.27,8.36 19.88,13.83 4.61,5.47 7.49,11.23 8.64,17.28 1.15,6.05 1.15,11.67 0,16.85 -6.34,26.51 -13.11,54.02 -20.31,82.54 -7.2,28.52 -14.83,56.9 -22.9,85.13 4.03,0 7.92,0 11.67,0 3.74,0 7.63,0.29 11.67,0.87 28.8,-1.15 56.03,-6.05 81.67,-14.69 25.64,-8.64 47.39,-20.17 65.25,-34.57 17.87,-14.41 30.97,-31.69 39.33,-51.85 8.36,-20.17 9.65,-42.64 3.89,-67.42 -4.61,-19.01 -17.72,-35.14 -39.33,-48.4 -21.61,-13.25 -51.42,-19.88 -89.45,-19.88 -58.2,-0.58 -109.19,7.06 -152.98,22.91 -43.79,15.84 -79.37,34.85 -106.74,57.04 -27.37,22.18 -45.95,45.38 -55.74,69.58 -9.8,24.2 -9.51,44.36 0.86,60.5 -25.35,-2.31 -45.52,-7.49 -60.5,-15.56 -14.98,-8.07 -25.93,-17.28 -32.84,-27.66 -6.91,-10.37 -9.94,-21.32 -9.07,-32.84 0.87,-11.52 4.75,-21.61 11.67,-30.25 14.98,-19.01 36.44,-36.15 64.39,-51.42 27.95,-15.27 60.07,-28.23 96.36,-38.89 36.3,-10.66 75.48,-19.01 117.54,-25.06 42.06,-6.06 84.99,-9.37 128.78,-9.94 29.96,-0.58 59.06,1.44 87.3,6.05 28.23,4.61 53.3,11.81 75.19,21.6 21.89,9.8 39.18,22.62 51.85,38.46 12.68,15.85 18.72,35.01 18.15,57.47 -0.57,20.74 -7.2,39.61 -19.88,56.61 -12.68,16.99 -28.95,31.98 -48.83,44.94 -19.88,12.96 -41.77,23.63 -65.68,31.98 -23.91,8.35 -47.39,14.26 -70.44,17.71 28.23,8.64 51.57,20.31 70.01,35.01 18.44,14.69 27.37,32.7 26.79,54.01 -0.58,14.98 -5.9,28.52 -15.99,40.63 -10.08,12.1 -23.91,22.61 -41.49,31.54 -17.57,8.93 -38.31,16.14 -62.23,21.61 -23.91,5.47 -49.69,8.79 -77.35,9.94 -34.57,1.73 -69.43,0.44 -104.58,-3.89 -35.15,-4.32 -66.98,-11.52 -95.5,-21.6 -28.52,-10.09 -51.86,-22.33 -70.01,-36.74 -18.15,-14.4 -27.52,-30.53 -28.09,-48.4 0,-7.49 2.02,-13.97 6.06,-19.44 4.03,-5.47 9.36,-9.65 15.99,-12.53 6.63,-2.88 14.12,-4.75 22.47,-5.62 8.36,-0.86 16.57,-0.43 24.63,1.3 -2.3,16.13 0.72,31.69 9.08,46.67 8.35,14.98 20.88,28.09 37.6,39.33 16.71,11.23 37.16,19.88 61.36,25.93 24.2,6.05 50.7,8.21 79.51,6.48 25.93,-1.15 47.97,-4.61 66.12,-10.37 18.15,-5.76 32.84,-12.68 44.07,-20.74 11.24,-8.07 19.45,-16.56 24.63,-25.5 5.19,-8.93 7.78,-17.43 7.78,-25.5 0,-11.52 -3.6,-21.46 -10.8,-29.82 -7.2,-8.35 -16.56,-15.41 -28.09,-21.17 -11.52,-5.76 -24.63,-10.09 -39.33,-12.96 -14.69,-2.88 -29.82,-4.33 -45.38,-4.33l-38.03 137.42c-14.98,-1.72 -28.67,-4.46 -41.06,-8.21 -12.39,-3.74 -22.61,-8.79 -30.68,-15.12 -8.07,-6.34 -13.54,-13.98 -16.42,-22.9 -2.88,-8.93 -1.73,-20.02 3.45,-33.28 5.76,-16.14 13.11,-36.88 22.04,-62.23 8.93,-25.35 18.44,-52.29 28.52,-80.81 10.09,-28.52 20.6,-57.47 31.55,-86.86 10.95,-29.38 21.32,-56.46 31.12,-81.24z"/>
  <path class="fil1" d="M3660.15 975.16c121.56,0 226.48,-20.79 314.76,-62.38 88.29,-41.59 159.94,-94.05 214.96,-157.38 55.02,-63.33 93.09,-133.07 114.2,-209.21 21.11,-76.13 25.27,-148.1 12.47,-215.91 -7.67,-39.67 -22.07,-76.78 -43.18,-111.32 -21.11,-34.55 -48.3,-64.61 -81.57,-90.2 -33.27,-25.59 -73.57,-45.42 -120.91,-59.5 -47.34,-14.08 -101.72,-21.11 -163.14,-21.11 -181.34,2.16 -369.16,61.55 -507.66,181.37 -56.94,49.26 -96.92,100.12 -119.96,152.58 -23.03,52.46 -23.67,95.96 -1.92,130.51 -56.3,-5.12 -101.08,-16.64 -134.35,-34.55 -33.27,-17.91 -57.58,-38.38 -72.93,-61.42 -15.35,-23.03 -22.07,-47.34 -20.15,-72.93 1.92,-25.59 10.56,-47.99 25.92,-67.18 30.71,-38.38 75.81,-74.53 135.31,-108.44 59.49,-33.91 126.03,-63.33 199.6,-88.29 73.57,-25.26 151.94,-45.1 235.12,-59.49 83.17,-14.72 164.42,-21.44 243.75,-20.15 104.92,1.28 194.17,10.23 267.74,26.87 73.57,16.64 134.35,38.71 182.33,66.54 47.99,27.51 85.41,60.46 112.28,98.84 26.87,38.39 46.71,79.65 59.5,123.16 23.03,75.49 22.07,155.46 -2.88,239.27 -24.96,84.13 -71.98,161.22 -141.07,231.91 -69.1,70.37 -159.94,128.91 -272.54,175.93 -112.59,46.71 -246.31,70.7 -401.13,71.97 -74.22,0 -143.63,-6.08 -208.24,-18.23 -64.62,-12.16 -121.24,-29.11 -169.86,-50.87 -48.62,-21.75 -87.01,-47.66 -115.15,-77.73 -28.15,-30.07 -42.87,-62.38 -44.15,-96.92 0,-16.64 4.48,-31.03 13.43,-43.19 8.96,-12.15 20.8,-21.43 35.51,-27.83 14.71,-6.4 31.35,-10.56 49.9,-12.48 18.55,-1.92 36.79,-0.96 54.7,2.88 -3.84,33.27 1.92,65.58 17.27,96.92 15.35,31.35 38.38,59.5 69.1,84.45 30.71,24.95 68.45,45.1 113.24,60.46 44.78,15.36 94.68,23.03 149.7,23.03z"/>
 </g>
</svg>
