<?xml version="1.0" encoding="UTF-8"?>
<!DOCTYPE svg PUBLIC "-//W3C//DTD SVG 1.1//EN" "http://www.w3.org/Graphics/SVG/1.1/DTD/svg11.dtd">
<!-- Creator: CorelDRAW 2020 (64-Bit) -->
<svg xmlns="http://www.w3.org/2000/svg" xml:space="preserve" width="86.895mm" height="56.0209mm" version="1.1" style="shape-rendering:geometricPrecision; text-rendering:geometricPrecision; image-rendering:optimizeQuality; fill-rule:evenodd; clip-rule:evenodd"
viewBox="0 0 5773.19 3721.95"
 xmlns:xlink="http://www.w3.org/1999/xlink"
 xmlns:xodm="http://www.corel.com/coreldraw/odm/2003">
 <defs>
  <style type="text/css">
   <![CDATA[
    .fil0 {fill:black}
    .fil1 {fill:black;fill-rule:nonzero}
   ]]>
  </style>
 </defs>
 <g id="Layer_x0020_1">
  <metadata id="CorelCorpID_0Corel-Layer"/>
  <g id="_919220080">
   <g>
    <path class="fil0" d="M1439.77 2801.92c-30.47,-58.82 -176.2,-171.92 -142.65,-252.34 18.01,10.6 4.13,23.95 32.7,66.93 69.74,104.89 167.24,201.97 241.42,315.8 9.08,13.92 12.34,14.66 22.29,28.34 13.97,19.22 30.24,43.4 43.14,63.69 40.45,63.62 95.59,160.93 117.94,237.01 34.87,118.71 23.09,167.82 37.23,221.03 13.55,51.02 -29.66,58.04 -62.96,78.04 -22.46,13.49 -19.57,14.68 -17.49,42.41 54.69,22.38 154.54,36.43 212.05,5.65 81.47,-43.62 10.15,-149.99 81.97,-169.15 42.88,20.72 66.31,155.46 97.76,118.45 16.13,-14.26 0.5,-25.09 -8.15,-40.97 -31.11,-57.1 -41.47,-102.93 -38.45,-169.39 3.45,-75.85 -46.01,-133.96 -89.86,-186.15 -44.77,-53.28 -72.48,-98.56 -107.21,-168.52 -15.73,-31.67 -65.36,-180.08 -50.97,-217.95 31.09,-19.24 114,7.22 157.46,-1.24l19.21 -36.1c23.82,46.63 50.68,124.55 70.41,177.17 5.15,13.73 6.9,30.87 12.03,44.73l49.03 113.86c32.53,58.82 120.47,207.88 196.28,182.41 23.65,-68.45 -31.53,-102.01 -10.86,-139.75 1.33,-0.65 3.55,-2.74 4.24,-1.34l12.75 -1.57c47.49,5.79 134.47,216.62 145.03,248.65 14.2,43.03 51.28,119.87 106.32,84.21 73.24,-47.43 -16.61,-108.79 31.24,-152.32 44.92,1.18 60.7,53.7 81.33,90.97 67.61,122.1 65.68,231.84 196.39,72.01l208.38 -314.55c13.64,-25.93 59.56,-80.76 81.15,-99.35 30.62,-26.36 83.61,-79.99 126.13,-60.68 -5.26,19.53 -73.16,46.65 -94.45,59.04 -33.15,19.29 -68.37,43.42 -66.7,87.21 53.06,45.8 168.24,98.37 240.18,105.35 23.49,2.27 58.6,0.15 77.93,5.61 13.01,3.67 41.83,15.34 63,22.62 12.98,4.46 13.21,6.75 26.46,12.09 126.71,51.09 202.7,102.3 365.03,114.69 121.84,9.3 176.95,24.34 270.07,71.62l164.56 88.49c60.7,31.96 168.53,26.97 210.47,48.16 52.72,26.64 77.14,28.87 141.52,20.14 45.82,-6.21 100.63,-3.69 100.87,-67 0.33,-84.99 -115.7,-151.05 -195.34,-148.77 -78.74,2.25 -85.89,6.41 -148.7,-22.81 -68.52,-31.87 -76.08,-19.53 -149.78,-17.44 -54.93,1.55 -159.9,-93.78 -217.07,-127.8 -111.79,-66.51 -223.49,-126.01 -351.03,-166.16 -93.41,-29.4 -163.17,-49.76 -251.52,-91.75 -26.4,-12.55 -67.71,-49.54 -98.82,-70.27l-188.82 -154.32c-30.46,-26.36 -62.88,-57.47 -92.48,-81.81l-86.53 -82.21c-24.67,-22.38 -62.37,-61.66 -84.56,-89.88 -13.19,-16.79 -24,-26.66 -38.16,-46.3 -11.18,-15.52 -23.94,-34.24 -35.41,-54.59 -11.47,-20.38 -17.75,-30.3 -26.2,-58.39 -13.1,-43.52 -0.87,-38.16 -3.77,-75.52 -14.9,-10.13 -32.92,-11.91 -49.76,-11.7 -29.74,12.65 -0.27,57.2 -130.27,-15.45 -67.88,-37.94 -67.36,-33.3 -93.96,-96.52l-36.12 -6.66c-54.25,58.43 -30.44,69.8 -198,-35.69 -51.42,-32.38 -95.32,-60.26 -140.9,-95.27 -68.07,-52.28 -128.92,-102.87 -170.79,-178.12 -28.1,-50.5 -101.35,-68.4 -181.2,-167.53 -34.99,-43.44 -73.28,-73.47 -97.01,-138.74 -8.91,-24.52 -16.41,-65.11 -26.05,-87.24l-35.45 -82.16c-36.66,-83.07 -31.11,-98.85 -45.32,-191.55 -27.93,3.86 -22.56,-1.2 -30.62,28.34 -43.07,157.92 -46.54,108.47 -46.21,318.9 0.17,111.41 32.04,296.16 -11.45,387.86 -22.43,47.3 -47.46,93.29 -55.22,152.4 -7.08,54.02 -35.45,115.3 -59.3,154.92 -53.43,88.73 -105.23,177.23 -165.73,256.21 -48.95,63.89 -190.9,218.3 -260.73,262.34 -77.83,49.09 -87.96,39.42 -197.47,123.24 -80.07,61.27 -145.37,133.97 -218.07,203.82l-151.64 163.41c-36.87,41.22 -114.65,128.82 -170.49,144.15 -96.4,26.46 -140.42,37.09 -192.15,117.56 -43.87,68.25 -100.72,157.41 -24.38,227.08 88.81,81.06 162.76,-44.92 218.41,-100.52 36.23,-36.2 229.71,-217.08 259.64,-220.64 25.39,-3.02 43.66,25.41 62.86,38.85 117.32,82.18 113.76,70.71 202.37,-2.15l500.34 -444.69c41.18,-39.75 124.43,-121.88 158.67,-164.44z"/>
    <path class="fil0" d="M1990.95 883.75c-6.52,6.96 -2.9,2.5 -10.94,7.99 -4.25,2.91 -7.97,4.36 -10.61,6.9 -12.6,12.1 -7.47,-0.01 -9.81,24.77l-37.05 0.27c-5.73,50.84 11.58,62.03 19.49,102.46 7.08,36.17 15.81,74.64 21.26,107.48 7.63,46 13.19,196.37 32.26,221.27 8.01,10.46 61.54,50.96 116.57,136.52l98.24 154.89c42.34,69.75 37.6,81.63 109.61,143.53 26.23,22.55 282.77,202 300.52,205.63 35.94,7.35 73.71,-13.15 120.27,-2.39 36.42,8.42 63.69,40.2 85.9,44.51 44.26,-31.43 36.4,-139.73 134.28,-78.78 32.67,20.35 133.76,59.02 173.92,73.41 95.59,34.24 244.47,39.05 317.6,53.18 47.52,9.19 124.35,56.4 298.58,72.72 40.07,3.75 68.39,15.26 110.62,13.66 45.45,-1.73 79.89,7.12 117.21,4.99 65.41,-3.74 42.35,-10.53 87.85,26.28 10.49,8.49 22.47,16.82 33.44,28.48 15.31,16.3 14.58,14.42 34.34,27.47 29.66,19.59 50.89,30.31 71.51,52.33 20.24,21.6 32.1,50.9 72.68,51.04 7.99,-11.39 9.22,-22.72 17.93,-35.89 54.45,-0.64 79.38,74.75 127.6,79.88l15.95 -14.58c-0.68,-21.58 -17.15,-38.86 -27.86,-56.75 4.86,-3.14 94.23,-7.86 -10.19,-62.02l-200.01 -104.06c-62.64,-37.41 -87.03,-61.36 -149.17,-81.13 -22.74,-7.24 -24.79,-16.6 -55.52,-22.51 -62.2,-11.96 -109.63,-36.81 -163.41,-62.7 -19.02,-9.16 -42.56,-11.36 -59.93,-18.63 -73.04,-30.56 -177.95,-48.9 -255.19,-55.18 -56.55,-4.6 -63.83,-26.31 -103.88,-46.81 -88.82,-45.45 -150.1,-60.01 -218.48,-90.98 -18.95,-8.58 -37.66,-9.75 -54.96,-18.12 -33.29,-16.12 -50.23,-76.26 -131.88,-105.23 -40.87,-14.5 -81.23,-16.68 -125.39,-26.72 -26.99,-6.14 -68.25,-65.04 -39.58,-92.8 21.32,-17.65 21.09,10.6 85.92,-26.24 83.95,-47.7 100.22,-71.57 141.95,-138.96 6.05,-9.77 16.39,-20.43 24.81,-31.64 25.66,-34.14 46.65,-135.4 38.3,-185.21 -25.11,-149.86 -259,-198.66 -343.48,-69.45 -46.33,70.86 -19.35,43.46 -55.81,62.44 -17.56,9.15 -15.94,11.33 -23.87,31.96 -6.68,17.37 -12.18,28.2 -9.18,46.09 5.63,33.58 29.51,29.74 15.12,96.34 -6.09,28.2 -8.02,7.87 -20.26,35.49 -7.77,17.53 -4.86,21.73 -15,40.48 -12.98,24.02 -33.89,54.45 -48.11,68.53 -66.66,13.86 -45.48,-42.93 -123.42,-42.72 -44.57,0.11 -77.65,-35.91 -103.14,-71.57 -30.66,-42.91 20.52,-127.46 -27.51,-219.78 -10.24,-19.67 -29.03,-37.02 -35.31,-57.64 20.85,-34.02 62.84,-34.66 81.89,-49.72 22.49,-17.8 -6.26,-23.73 88.42,-47.53 35.55,-8.94 32.57,-50.84 34.75,-94.18 3.04,-60.42 25.43,-36.83 50.69,-84.24 50.81,-95.35 81.12,-207.17 -10.09,-293.43 -27.61,-26.12 -49.87,-31.98 -81.79,-53.27 -55.05,-36.7 -118.35,-60.77 -209.55,-38.57 -65.97,16.06 -118.77,68.53 -145.13,118.43 -41.97,79.43 -24.89,174.85 -64.87,199.74 -35.25,21.94 -58.3,-18.83 -92.62,36.91 -12.01,19.49 -2.78,33.68 -5.25,51.88 -3.52,25.92 -5.58,-4.8 -6.86,23.05 -0.58,12.62 3.6,6.35 5.63,28.42z"/>
   </g>
   <path class="fil1" d="M4605.45 388.74c30.67,1.34 56.01,6.34 76.03,15.01 20,8.67 35.35,19.34 46.02,32.01 10.67,12.67 17.34,26.01 20,40.02 2.67,14 2.67,27.01 0,39.01 -14.67,61.35 -30.34,125.04 -47.02,191.06 -16.67,66.02 -34.34,131.71 -53.02,197.06 9.34,0 18.34,0 27.01,0 8.67,0 17.67,0.66 27.01,2 66.69,-2.66 129.71,-14.01 189.06,-34.01 59.35,-20 109.7,-46.68 151.05,-80.03 41.35,-33.35 71.69,-73.36 91.03,-120.04 19.34,-46.69 22.34,-98.7 9,-156.05 -10.67,-44.02 -41.01,-81.36 -91.03,-112.04 -50.02,-30.67 -119.04,-46.02 -207.07,-46.02 -134.71,-1.34 -252.75,16.34 -354.12,53.02 -101.37,36.68 -183.73,80.7 -247.09,132.05 -63.35,51.35 -106.37,105.03 -129.04,161.05 -22.67,56.02 -22,102.7 2.01,140.05 -58.69,-5.34 -105.37,-17.34 -140.05,-36.01 -34.67,-18.68 -60.01,-40.02 -76.03,-64.02 -16.01,-24.01 -23.01,-49.35 -21,-76.03 2,-26.68 11,-50.02 27.01,-70.03 34.67,-44.02 84.36,-83.69 149.05,-119.04 64.69,-35.35 139.05,-65.36 223.07,-90.03 84.03,-24.68 174.73,-44.02 272.09,-58.02 97.37,-14.01 196.73,-21.67 298.1,-23.01 69.36,-1.34 136.71,3.34 202.07,14.01 65.36,10.67 123.38,27.34 174.06,50.02 50.69,22.68 90.7,52.35 120.04,89.03 29.35,36.68 43.35,81.03 42.02,133.05 -1.34,48.02 -16.68,91.7 -46.02,131.04 -29.35,39.34 -67.02,74.03 -113.04,104.04 -46.02,30.01 -96.7,54.69 -152.05,74.02 -55.35,19.34 -109.7,33.01 -163.05,41.02 65.36,20 119.37,47.01 162.05,81.02 42.69,34.02 63.36,75.69 62.02,125.04 -1.33,34.68 -13.67,66.02 -37.01,94.03 -23.35,28.01 -55.36,52.35 -96.04,73.03 -40.68,20.67 -88.7,37.35 -144.05,50.02 -55.36,12.67 -115.04,20.34 -179.06,23.01 -80.03,4 -160.72,1 -242.08,-9 -81.36,-10.01 -155.05,-26.68 -221.07,-50.02 -66.03,-23.34 -120.04,-51.68 -162.06,-85.03 -42.02,-33.34 -63.69,-70.69 -65.02,-112.04 0,-17.34 4.67,-32.34 14.01,-45.01 9.34,-12.68 21.68,-22.34 37.01,-29.01 15.34,-6.67 32.68,-11 52.02,-13 19.34,-2 38.34,-1 57.02,3 -5.34,37.35 1.67,73.35 21.01,108.04 19.34,34.67 48.35,65.02 87.03,91.03 38.68,26.01 86.03,46.02 142.05,60.02 56.02,14.01 117.38,19.01 184.06,15.01 60.02,-2.67 111.04,-10.68 153.05,-24.01 42.02,-13.34 76.03,-29.35 102.03,-48.02 26.01,-18.68 45.02,-38.35 57.02,-59.02 12,-20.67 18,-40.34 18,-59.02 0,-26.68 -8.34,-49.68 -25.01,-69.02 -16.68,-19.34 -38.35,-35.68 -65.02,-49.02 -26.68,-13.33 -57.02,-23.34 -91.03,-30.01 -34.02,-6.66 -69.02,-10 -105.04,-10l-88.03 318.11c-34.67,-4.01 -66.35,-10.34 -95.03,-19.01 -28.68,-8.67 -52.35,-20.34 -71.02,-35.01 -18.68,-14.67 -31.35,-32.34 -38.02,-53.02 -6.67,-20.68 -4,-46.35 8.01,-77.02 13.33,-37.35 30.34,-85.37 51.01,-144.05 20.68,-58.69 42.69,-121.04 66.03,-187.06 23.34,-66.02 47.68,-133.04 73.02,-201.06 25.34,-68.03 49.35,-130.71 72.03,-188.07z"/>
   <path class="fil1" d="M4379.62 1564.26c194.99,0 363.3,-33.35 504.92,-100.06 141.62,-66.7 256.56,-150.86 344.82,-252.45 88.26,-101.6 149.32,-213.45 183.18,-335.58 33.87,-122.12 40.54,-237.58 20.01,-346.36 -12.31,-63.63 -35.41,-123.15 -69.27,-178.57 -33.86,-55.42 -77.48,-103.65 -130.84,-144.7 -53.37,-41.05 -118.02,-72.86 -193.96,-95.44 -75.95,-22.58 -163.17,-33.87 -261.7,-33.87 -290.89,3.46 -592.16,98.73 -814.33,290.94 -91.34,79.02 -155.48,160.61 -192.43,244.76 -36.94,84.16 -37.97,153.94 -3.08,209.35 -90.3,-8.21 -162.14,-26.68 -215.51,-55.42 -53.36,-28.73 -92.36,-61.58 -116.99,-98.52 -24.63,-36.95 -35.41,-75.95 -32.33,-116.99 3.08,-41.05 16.94,-76.98 41.57,-107.76 49.25,-61.58 121.6,-119.56 217.05,-173.95 95.44,-54.39 202.17,-101.6 320.19,-141.63 118.02,-40.53 243.74,-72.35 377.15,-95.44 133.42,-23.61 263.75,-34.38 391,-32.33 168.3,2.06 311.46,16.42 429.48,43.11 118.02,26.68 215.51,62.09 292.48,106.73 76.97,44.13 137,96.98 180.11,158.56 43.11,61.58 74.92,127.77 95.44,197.56 36.95,121.1 35.41,249.38 -4.62,383.82 -40.02,134.95 -115.46,258.61 -226.29,372.02 -110.83,112.89 -256.56,206.79 -437.18,282.22 -180.62,74.92 -395.11,113.4 -643.46,115.45 -119.04,0 -230.4,-9.75 -334.04,-29.25 -103.66,-19.5 -194.48,-46.69 -272.47,-81.59 -78,-34.89 -139.57,-76.46 -184.73,-124.69 -45.16,-48.23 -68.76,-100.06 -70.81,-155.48 0,-26.69 7.18,-49.78 21.55,-69.28 14.36,-19.49 33.35,-34.38 56.95,-44.64 23.61,-10.26 50.29,-16.93 80.05,-20.01 29.76,-3.08 59.01,-1.54 87.75,4.62 -6.16,53.37 3.08,105.19 27.7,155.48 24.63,50.29 61.58,95.44 110.84,135.46 49.26,40.02 109.8,72.35 181.64,96.98 71.83,24.63 151.89,36.95 240.14,36.95z"/>
  </g>
 </g>
</svg>
